<svg width="1024" height="1024" viewBox="0 0 1024 1024" fill="none" xmlns="http://www.w3.org/2000/svg">
<g clip-path="url(#clip0_109_1042)">
<path fill-rule="evenodd" clip-rule="evenodd" d="M512 627.385C575.725 627.385 627.385 575.725 627.385 512C627.385 448.275 575.725 396.615 512 396.615C448.275 396.615 396.615 448.275 396.615 512C396.615 575.725 448.275 627.385 512 627.385ZM604.308 512C604.308 562.98 562.98 604.308 512 604.308C461.02 604.308 419.692 562.98 419.692 512C419.692 461.02 461.02 419.692 512 419.692C562.98 419.692 604.308 461.02 604.308 512Z" fill="#F76F53"/>
<path fill-rule="evenodd" clip-rule="evenodd" d="M712 512C712 622.457 622.457 712 512 712C401.543 712 312 622.457 312 512C312 401.543 401.543 312 512 312C622.457 312 712 401.543 712 512ZM512 673.538C601.215 673.538 673.538 601.215 673.538 512C673.538 422.785 601.215 350.462 512 350.462C422.785 350.462 350.462 422.785 350.462 512C350.462 601.215 422.785 673.538 512 673.538Z" fill="#F76F53"/>
<path fill-rule="evenodd" clip-rule="evenodd" d="M812 512C812 677.685 677.685 812 512 812C346.315 812 212 677.685 212 512C212 346.315 346.315 212 512 212C677.685 212 812 346.315 812 512ZM512 758.154C647.947 758.154 758.154 647.947 758.154 512C758.154 376.053 647.947 265.846 512 265.846C376.053 265.846 265.846 376.053 265.846 512C265.846 647.947 376.053 758.154 512 758.154Z" fill="#F76F53"/>
</g>
<defs>
<clipPath id="clip0_109_1042">
<rect width="1024" height="1024" fill="white"/>
</clipPath>
</defs>
</svg>
